<svg width="32" height="32" viewBox="0 0 32 32" fill="none" xmlns="http://www.w3.org/2000/svg">
<g clip-path="url(#clip0_1369_51)">
<path d="M23 4C23.2884 4 23.563 4.12478 23.7529 4.3418L30.7529 12.3418C30.7577 12.3472 30.762 12.3529 30.7666 12.3584C30.7711 12.3637 30.7749 12.3696 30.7793 12.375C30.7942 12.3936 30.8088 12.4123 30.8223 12.4316C30.8291 12.4415 30.8353 12.4518 30.8418 12.4619C30.8517 12.4774 30.8612 12.4929 30.8701 12.5088C30.8777 12.5222 30.8846 12.536 30.8916 12.5498C30.8979 12.5622 30.9044 12.5743 30.9102 12.5869C30.9182 12.6046 30.9256 12.6225 30.9326 12.6406C30.9377 12.6539 30.9427 12.6672 30.9473 12.6807C30.9523 12.6955 30.9566 12.7105 30.9609 12.7256C30.9654 12.7411 30.969 12.7568 30.9727 12.7725C30.9763 12.7883 30.9795 12.8042 30.9824 12.8203C30.9847 12.8327 30.9865 12.845 30.9883 12.8574C30.9912 12.8778 30.9944 12.8982 30.9961 12.9189C30.9973 12.9339 30.9975 12.9489 30.998 12.9639C30.9985 12.9759 31 12.9879 31 13C31 13.002 30.999 13.0039 30.999 13.0059C30.9989 13.0244 30.9982 13.043 30.9971 13.0615C30.9962 13.0766 30.9957 13.0916 30.9941 13.1064C30.9874 13.1702 30.9741 13.2332 30.9551 13.2949C30.9425 13.3356 30.9266 13.3748 30.9092 13.4131C30.8876 13.4606 30.8623 13.5065 30.833 13.5508C30.8282 13.558 30.8233 13.5652 30.8184 13.5723C30.7918 13.6102 30.7639 13.6479 30.7314 13.6826L16.7314 28.6826C16.7155 28.6997 16.6976 28.7147 16.6807 28.7305C16.6778 28.7331 16.6757 28.7366 16.6729 28.7393C16.639 28.77 16.6028 28.7976 16.5654 28.8232C16.5594 28.8274 16.553 28.8309 16.5469 28.835C16.5159 28.8552 16.4842 28.874 16.4512 28.8906C16.4399 28.8964 16.4285 28.9019 16.417 28.9072C16.3372 28.9438 16.2531 28.9697 16.166 28.9844C16.1573 28.9859 16.1485 28.987 16.1396 28.9883C16.0936 28.9948 16.0471 29 16 29C15.9526 29 15.9058 28.9949 15.8594 28.9883C15.8506 28.987 15.8418 28.9859 15.833 28.9844C15.7459 28.9696 15.6617 28.9439 15.582 28.9072C15.5705 28.9019 15.5592 28.8964 15.5479 28.8906C15.5149 28.8739 15.4831 28.8553 15.4521 28.835C15.446 28.8309 15.4396 28.8274 15.4336 28.8232C15.3962 28.7976 15.36 28.7701 15.3262 28.7393C15.3233 28.7366 15.3212 28.7331 15.3184 28.7305C15.3016 28.7148 15.2843 28.6995 15.2686 28.6826L1.26855 13.6826C1.23599 13.6477 1.20732 13.6104 1.18066 13.5723C1.17569 13.5652 1.1708 13.558 1.16602 13.5508C1.13673 13.5065 1.11136 13.4605 1.08984 13.4131C1.07286 13.3757 1.05727 13.3375 1.04492 13.2979L1.04004 13.2832C1.02304 13.2253 1.01219 13.166 1.00586 13.1064C1.00429 13.0916 1.00384 13.0766 1.00293 13.0615C1.00202 13.0465 1.00024 13.0316 1 13.0166V13C1 12.9879 1.00055 12.9759 1.00098 12.9639C1.00152 12.9489 1.00172 12.9339 1.00293 12.9189C1.00459 12.8982 1.00783 12.8778 1.01074 12.8574C1.01253 12.845 1.01435 12.8326 1.0166 12.8203C1.01952 12.8042 1.02269 12.7883 1.02637 12.7725C1.03002 12.7568 1.03367 12.7411 1.03809 12.7256C1.04238 12.7105 1.04678 12.6955 1.05176 12.6807C1.05628 12.6672 1.06129 12.6539 1.06641 12.6406C1.0734 12.6225 1.08086 12.6045 1.08887 12.5869C1.09457 12.5743 1.10117 12.5622 1.10742 12.5498C1.11447 12.5359 1.12221 12.5223 1.12988 12.5088C1.13876 12.4931 1.14743 12.4772 1.15723 12.4619C1.1637 12.4518 1.16993 12.4415 1.17676 12.4316C1.19016 12.4123 1.2048 12.3936 1.21973 12.375C1.22408 12.3696 1.22795 12.3637 1.23242 12.3584C1.23714 12.3528 1.2422 12.3474 1.24707 12.3418L8.24707 4.3418C8.43696 4.12478 8.71164 4 9 4H23ZM11.4766 14L16 25.3066L20.5225 14H11.4766ZM4.30176 14L13.0879 23.4131L9.32324 14H4.30176ZM22.6768 14L18.9111 23.4131L27.6973 14H22.6768ZM4.20312 12H9.50098L14.001 6H9.4541L4.20312 12ZM11.999 12H20L16 6.66602L11.999 12ZM22.499 12H27.7959L22.5459 6H17.999L22.499 12Z" fill="#154D61"/>
</g>
<defs>
<clipPath id="clip0_1369_51">
<rect width="32" height="32" fill="white"/>
</clipPath>
</defs>
</svg>
